<svg width="20" height="20" viewBox="0 0 20 20" fill="none" xmlns="http://www.w3.org/2000/svg">
<path d="M6.88281 13.75C7.08281 13.7833 7.28837 13.8166 7.49948 13.85C8.0217 13.95 8.54948 14.0666 9.08281 14.2C9.83837 14.3888 10.5439 14.6 11.1995 14.8333C12.0217 15.1222 12.7495 15.4388 13.3828 15.7833C14.1273 16.1833 14.7384 16.6166 15.2161 17.0833H16.0495C16.2717 17.0833 16.4634 17.0027 16.6245 16.8416C16.7856 16.6805 16.8661 16.4833 16.8661 16.25V11.2C17.2328 11.1 17.5356 10.9027 17.7745 10.6083C18.0134 10.3138 18.1328 9.97218 18.1328 9.58329C18.1328 9.1944 18.0134 8.85274 17.7745 8.55829C17.5356 8.26385 17.2384 8.06663 16.8828 7.96663V2.91663C16.8828 2.68329 16.7995 2.48607 16.6328 2.32496C16.4661 2.16385 16.2717 2.08329 16.0495 2.08329H15.2161C14.7495 2.54996 14.1384 2.98329 13.3828 3.38329C12.7495 3.72774 12.0217 4.0444 11.1995 4.33329C10.5439 4.56663 9.83837 4.77774 9.08281 4.96663C8.54948 5.09996 8.0217 5.21663 7.49948 5.31663L6.88281 5.41663H3.54948C3.23837 5.41663 2.95503 5.49163 2.69948 5.64163C2.44392 5.79163 2.24392 5.9944 2.09948 6.24996C1.95503 6.50551 1.88281 6.78329 1.88281 7.08329V12.0833C1.88281 12.3833 1.95503 12.6611 2.09948 12.9166C2.24392 13.1722 2.44392 13.375 2.69948 13.525C2.95503 13.675 3.23281 13.75 3.53281 13.75H4.38281L5.21615 17.9166H6.88281V13.75ZM8.54948 6.79996C9.23837 6.65551 9.91059 6.48329 10.5661 6.28329C12.4773 5.72774 14.0217 5.0444 15.1995 4.23329V14.9333C14.0217 14.1222 12.4773 13.4388 10.5661 12.8833C9.91059 12.6833 9.23281 12.5111 8.53281 12.3666V6.79996H8.54948ZM3.54948 7.08329H6.88281V12.0833H3.54948V7.08329Z" fill="white"/>
</svg>
