<svg width="20" height="20" viewBox="0 0 20 20" fill="none" xmlns="http://www.w3.org/2000/svg">
<path d="M9.99909 2.5C11.4658 2.5 12.8546 2.83333 14.1658 3.5C15.4213 4.14444 16.4796 5.03611 17.3408 6.175C18.2019 7.31389 18.7602 8.58889 19.0158 10C18.7602 11.4111 18.2019 12.6861 17.3408 13.825C16.4796 14.9639 15.4213 15.8556 14.1658 16.5C12.8546 17.1667 11.4658 17.5 9.99909 17.5C8.53242 17.5 7.14353 17.1667 5.83242 16.5C4.57687 15.8556 3.51853 14.9639 2.65742 13.825C1.79631 12.6861 1.23798 11.4111 0.982422 10C1.23798 8.58889 1.79631 7.31389 2.65742 6.175C3.51853 5.03611 4.57687 4.14444 5.83242 3.5C7.14353 2.83333 8.53242 2.5 9.99909 2.5ZM9.99909 15.8333C11.1546 15.8333 12.2546 15.5778 13.2991 15.0667C14.3102 14.5778 15.1685 13.8889 15.8741 13C16.5796 12.1111 17.0602 11.1111 17.3158 10C17.0602 8.88889 16.5796 7.88889 15.8741 7C15.1685 6.11111 14.3102 5.42222 13.2991 4.93333C12.2546 4.42222 11.1546 4.16667 9.99909 4.16667C8.84353 4.16667 7.74353 4.42222 6.69909 4.93333C5.68798 5.42222 4.82964 6.11111 4.12409 7C3.41853 7.88889 2.93798 8.88889 2.68242 10C2.93798 11.1111 3.41853 12.1111 4.12409 13C4.82964 13.8889 5.68798 14.5778 6.69909 15.0667C7.74353 15.5778 8.84353 15.8333 9.99909 15.8333ZM9.99909 13.75C9.32131 13.75 8.69631 13.5806 8.12409 13.2417C7.55187 12.9028 7.09631 12.4472 6.75742 11.875C6.41853 11.3028 6.24909 10.6778 6.24909 10C6.24909 9.32222 6.41853 8.69722 6.75742 8.125C7.09631 7.55278 7.55187 7.09722 8.12409 6.75833C8.69631 6.41944 9.32131 6.25 9.99909 6.25C10.6769 6.25 11.3019 6.41944 11.8741 6.75833C12.4463 7.09722 12.9019 7.55278 13.2408 8.125C13.5796 8.69722 13.7491 9.32222 13.7491 10C13.7491 10.6778 13.5796 11.3028 13.2408 11.875C12.9019 12.4472 12.4463 12.9028 11.8741 13.2417C11.3019 13.5806 10.6769 13.75 9.99909 13.75ZM9.99909 12.0833C10.3769 12.0833 10.7241 11.9889 11.0408 11.8C11.3574 11.6111 11.6102 11.3583 11.7991 11.0417C11.988 10.725 12.0824 10.3778 12.0824 10C12.0824 9.62222 11.988 9.275 11.7991 8.95833C11.6102 8.64167 11.3574 8.38889 11.0408 8.2C10.7241 8.01111 10.3769 7.91667 9.99909 7.91667C9.62131 7.91667 9.27409 8.01111 8.95742 8.2C8.64076 8.38889 8.38798 8.64167 8.19909 8.95833C8.0102 9.275 7.91576 9.62222 7.91576 10C7.91576 10.3778 8.0102 10.725 8.19909 11.0417C8.38798 11.3583 8.64076 11.6111 8.95742 11.8C9.27409 11.9889 9.62131 12.0833 9.99909 12.0833Z" fill="white"/>
</svg>
