<svg width="20" height="20" viewBox="0 0 20 20" fill="none" xmlns="http://www.w3.org/2000/svg">
<path d="M13.7493 2.28328C14.5827 2.28328 15.3493 2.49995 16.0493 2.93328C16.7493 3.36662 17.2993 3.95551 17.6993 4.69995C18.1216 5.47773 18.3327 6.33884 18.3327 7.28328C18.3327 8.57217 18.0327 9.81106 17.4327 11C16.9216 12.0111 16.1938 12.9833 15.2493 13.9166C14.516 14.65 13.6438 15.3666 12.6327 16.0666C12.066 16.4555 11.3216 16.9222 10.3993 17.4666L9.99935 17.7L9.59935 17.4666C8.67713 16.9222 7.93268 16.4555 7.36602 16.0666C6.3549 15.3666 5.48268 14.65 4.74935 13.9166C3.8049 12.9833 3.07713 12.0111 2.56602 11C1.96602 9.81106 1.66602 8.57217 1.66602 7.28328C1.66602 6.33884 1.87713 5.47773 2.29935 4.69995C2.69935 3.95551 3.24935 3.36662 3.94935 2.93328C4.64935 2.49995 5.41602 2.28328 6.24935 2.28328C6.97157 2.29439 7.68824 2.47217 8.39935 2.81662C8.99935 3.10551 9.53268 3.48328 9.99935 3.94995C10.466 3.48328 10.9993 3.10551 11.5993 2.81662C12.3105 2.46106 13.0271 2.28328 13.7493 2.28328ZM10.7827 15.3C11.5382 14.8222 12.2105 14.35 12.7993 13.8833C14.066 12.8722 15.0216 11.8333 15.666 10.7666C16.3327 9.65551 16.666 8.49995 16.666 7.29995C16.666 6.65551 16.5382 6.07773 16.2827 5.56662C16.0271 5.05551 15.6771 4.66106 15.2327 4.38328C14.7882 4.10551 14.2938 3.96106 13.7493 3.94995C13.3049 3.94995 12.8549 4.05828 12.3993 4.27495C11.9438 4.49162 11.5382 4.77773 11.1827 5.13328L9.99935 6.31662L8.81602 5.13328C8.46046 4.77773 8.0549 4.49162 7.59935 4.27495C7.14379 4.05828 6.69379 3.94995 6.24935 3.94995C5.71602 3.94995 5.22713 4.09439 4.78268 4.38328C4.33824 4.67217 3.98546 5.06939 3.72435 5.57495C3.46324 6.08051 3.33268 6.65551 3.33268 7.29995C3.33268 8.49995 3.66602 9.65551 4.33268 10.7666C4.97713 11.8333 5.93268 12.8722 7.19935 13.8833C7.78824 14.35 8.46046 14.8222 9.21602 15.3C9.44935 15.4444 9.71046 15.6 9.99935 15.7666C10.2882 15.6 10.5493 15.4444 10.7827 15.3Z" fill="white"/>
</svg>
