<svg width="20" height="20" viewBox="0 0 20 20" fill="none" xmlns="http://www.w3.org/2000/svg">
<path d="M9.99935 18.3334C8.86602 18.3334 7.78268 18.1167 6.74935 17.6834C5.76046 17.2612 4.8799 16.6639 4.10768 15.8917C3.33546 15.1195 2.73824 14.2389 2.31602 13.25C1.88268 12.2167 1.66602 11.1334 1.66602 10C1.66602 8.86671 1.88268 7.78337 2.31602 6.75004C2.73824 5.76115 3.33546 4.8806 4.10768 4.10837C4.8799 3.33615 5.76046 2.73893 6.74935 2.31671C7.78268 1.88337 8.86602 1.66671 9.99935 1.66671C11.1327 1.66671 12.216 1.88337 13.2493 2.31671C14.2382 2.73893 15.1188 3.33615 15.891 4.10837C16.6632 4.8806 17.2605 5.76115 17.6827 6.75004C18.116 7.78337 18.3327 8.86671 18.3327 10C18.3327 11.1334 18.116 12.2167 17.6827 13.25C17.2605 14.2389 16.6632 15.1195 15.891 15.8917C15.1188 16.6639 14.2382 17.2612 13.2493 17.6834C12.216 18.1167 11.1327 18.3334 9.99935 18.3334ZM9.99935 16.6667C11.2105 16.6667 12.3327 16.3612 13.366 15.75C14.366 15.1612 15.1605 14.3667 15.7493 13.3667C16.3605 12.3334 16.666 11.2112 16.666 10C16.666 8.78893 16.3605 7.66671 15.7493 6.63337C15.1605 5.63337 14.366 4.83893 13.366 4.25004C12.3327 3.63893 11.2105 3.33337 9.99935 3.33337C8.78824 3.33337 7.66602 3.63893 6.63268 4.25004C5.63268 4.83893 4.83824 5.63337 4.24935 6.63337C3.63824 7.66671 3.33268 8.78893 3.33268 10C3.33268 11.2112 3.63824 12.3334 4.24935 13.3667C4.83824 14.3667 5.63268 15.1612 6.63268 15.75C7.66602 16.3612 8.78824 16.6667 9.99935 16.6667ZM13.7493 6.25004L11.666 11.6667L6.24935 13.75L8.33268 8.33337L13.7493 6.25004ZM9.99935 10.8334C10.2327 10.8334 10.4299 10.7528 10.591 10.5917C10.7521 10.4306 10.8327 10.2334 10.8327 10C10.8327 9.76671 10.7521 9.56948 10.591 9.40837C10.4299 9.24726 10.2327 9.16671 9.99935 9.16671C9.76602 9.16671 9.56879 9.24726 9.40768 9.40837C9.24657 9.56948 9.16602 9.76671 9.16602 10C9.16602 10.2334 9.24657 10.4306 9.40768 10.5917C9.56879 10.7528 9.76602 10.8334 9.99935 10.8334Z" fill="white"/>
</svg>
